<?xml version="1.0" encoding="UTF-8" standalone="no"?> <svg width="64" height="64" viewBox="0 0 64 64" fill="none" xmlns="http://www.w3.org/2000/svg">
<path d="M32 52C35.9556 52 39.8224 50.827 43.1114 48.6294C46.4004 46.4318 48.9638 43.3082 50.4776 39.6537C51.9913 35.9992 52.3874 31.9778 51.6157 28.0982C50.844 24.2186 48.9392 20.6549 46.1421 17.8579C43.3451 15.0608 39.7814 13.156 35.9018 12.3843C32.0222 11.6126 28.0009 12.0087 24.3463 13.5224C20.6918 15.0362 17.5682 17.5996 15.3706 20.8886C13.173 24.1776 12 28.0444 12 32C12 37.3043 14.1071 42.3914 17.8579 46.1421C21.6086 49.8929 26.6957 52 32 52ZM32 16C35.1645 16 38.2579 16.9384 40.8891 18.6965C43.5203 20.4546 45.5711 22.9535 46.7821 25.8771C47.9931 28.8007 48.3099 32.0178 47.6926 35.1215C47.0752 38.2252 45.5513 41.0761 43.3137 43.3137C41.0761 45.5514 38.2251 47.0752 35.1214 47.6926C32.0177 48.3099 28.8007 47.9931 25.8771 46.7821C22.9534 45.5711 20.4546 43.5203 18.6965 40.8891C16.9384 38.2579 16 35.1645 16 32C16.005 27.7581 17.6924 23.6913 20.6918 20.6919C23.6913 17.6924 27.7581 16.005 32 16V16Z" fill="#9BC9FF"/>
<path d="M32 7C33.1046 7 34 6.10457 34 5C34 3.89543 33.1046 3 32 3C30.8954 3 30 3.89543 30 5C30 6.10457 30.8954 7 32 7Z" fill="#9BC9FF"/>
<path d="M20 9C21.1046 9 22 8.10457 22 7C22 5.89543 21.1046 5 20 5C18.8954 5 18 5.89543 18 7C18 8.10457 18.8954 9 20 9Z" fill="#9BC9FF"/>
<path d="M44 9C45.1046 9 46 8.10457 46 7C46 5.89543 45.1046 5 44 5C42.8954 5 42 5.89543 42 7C42 8.10457 42.8954 9 44 9Z" fill="#9BC9FF"/>
<path d="M5 34C6.10457 34 7 33.1046 7 32C7 30.8954 6.10457 30 5 30C3.89543 30 3 30.8954 3 32C3 33.1046 3.89543 34 5 34Z" fill="#9BC9FF"/>
<path d="M7 46C8.10457 46 9 45.1046 9 44C9 42.8954 8.10457 42 7 42C5.89543 42 5 42.8954 5 44C5 45.1046 5.89543 46 7 46Z" fill="#9BC9FF"/>
<path d="M7 22C8.10457 22 9 21.1046 9 20C9 18.8954 8.10457 18 7 18C5.89543 18 5 18.8954 5 20C5 21.1046 5.89543 22 7 22Z" fill="#9BC9FF"/>
<path d="M32 61C33.1046 61 34 60.1046 34 59C34 57.8954 33.1046 57 32 57C30.8954 57 30 57.8954 30 59C30 60.1046 30.8954 61 32 61Z" fill="#9BC9FF"/>
<path d="M44 59C45.1046 59 46 58.1046 46 57C46 55.8954 45.1046 55 44 55C42.8954 55 42 55.8954 42 57C42 58.1046 42.8954 59 44 59Z" fill="#9BC9FF"/>
<path d="M20 59C21.1046 59 22 58.1046 22 57C22 55.8954 21.1046 55 20 55C18.8954 55 18 55.8954 18 57C18 58.1046 18.8954 59 20 59Z" fill="#9BC9FF"/>
<path d="M59 34C60.1046 34 61 33.1046 61 32C61 30.8954 60.1046 30 59 30C57.8954 30 57 30.8954 57 32C57 33.1046 57.8954 34 59 34Z" fill="#9BC9FF"/>
<path d="M57 22C58.1046 22 59 21.1046 59 20C59 18.8954 58.1046 18 57 18C55.8954 18 55 18.8954 55 20C55 21.1046 55.8954 22 57 22Z" fill="#9BC9FF"/>
<path d="M57 46C58.1046 46 59 45.1046 59 44C59 42.8954 58.1046 42 57 42C55.8954 42 55 42.8954 55 44C55 45.1046 55.8954 46 57 46Z" fill="#9BC9FF"/>
<path d="M34 30C34.2652 30 34.5196 29.8946 34.7071 29.7071C34.8946 29.5196 35 29.2652 35 29C35 28.7348 34.8946 28.4804 34.7071 28.2929C34.5196 28.1054 34.2652 28 34 28H31C30.7348 28 30.4804 28.1054 30.2929 28.2929C30.1054 28.4804 30 28.7348 30 29V35C30 35.2652 30.1054 35.5196 30.2929 35.7071C30.4804 35.8946 30.7348 36 31 36C31.2652 36 31.5196 35.8946 31.7071 35.7071C31.8946 35.5196 32 35.2652 32 35V33H34C34.2652 33 34.5196 32.8946 34.7071 32.7071C34.8946 32.5196 35 32.2652 35 32C35 31.7348 34.8946 31.4804 34.7071 31.2929C34.5196 31.1054 34.2652 31 34 31H32V30H34Z" fill="#1E81CE"/>
<path d="M23 36C23.2652 36 23.5196 35.8946 23.7071 35.7071C23.8946 35.5196 24 35.2652 24 35V32.3L26.168 35.552C26.2869 35.7304 26.46 35.8658 26.6618 35.9383C26.8635 36.0108 27.0832 36.0166 27.2885 35.9547C27.4938 35.8929 27.6737 35.7667 27.8018 35.5948C27.9299 35.4229 27.9994 35.2144 28 35V29C28 28.7348 27.8946 28.4804 27.7071 28.2929C27.5196 28.1054 27.2652 28 27 28C26.7348 28 26.4804 28.1054 26.2929 28.2929C26.1054 28.4804 26 28.7348 26 29V31.7L23.832 28.448C23.7131 28.2696 23.54 28.1342 23.3382 28.0617C23.1365 27.9892 22.9168 27.9834 22.7115 28.0453C22.5062 28.1071 22.3263 28.2333 22.1982 28.4052C22.0701 28.5771 22.0006 28.7856 22 29V35C22 35.2652 22.1054 35.5196 22.2929 35.7071C22.4804 35.8946 22.7348 36 23 36Z" fill="#1E81CE"/>
<path d="M41 28H37C36.7348 28 36.4804 28.1054 36.2929 28.2929C36.1054 28.4804 36 28.7348 36 29C36 29.2652 36.1054 29.5196 36.2929 29.7071C36.4804 29.8946 36.7348 30 37 30H38V35C38 35.2652 38.1054 35.5196 38.2929 35.7071C38.4804 35.8946 38.7348 36 39 36C39.2652 36 39.5196 35.8946 39.7071 35.7071C39.8946 35.5196 40 35.2652 40 35V30H41C41.2652 30 41.5196 29.8946 41.7071 29.7071C41.8946 29.5196 42 29.2652 42 29C42 28.7348 41.8946 28.4804 41.7071 28.2929C41.5196 28.1054 41.2652 28 41 28Z" fill="#1E81CE"/>
<path d="M56.18 33C56.4159 33.6672 56.8801 34.2296 57.4905 34.5876C58.1009 34.9457 58.8182 35.0765 59.5157 34.9568C60.2132 34.8371 60.846 34.4747 61.3021 33.9337C61.7583 33.3926 62.0084 32.7077 62.0084 32C62.0084 31.2923 61.7583 30.6074 61.3021 30.0663C60.846 29.5253 60.2132 29.1629 59.5157 29.0432C58.8182 28.9235 58.1009 29.0543 57.4905 29.4124C56.8801 29.7704 56.4159 30.3328 56.18 31H52.95C52.858 28.9524 52.4603 26.93 51.77 25H54C54.1551 24.9989 54.3078 24.9623 54.4465 24.893C54.5852 24.8236 54.7061 24.7234 54.8 24.6L56.11 22.85C56.3971 22.9459 56.6973 22.9965 57 23C57.5933 23 58.1734 22.8241 58.6667 22.4944C59.1601 22.1648 59.5446 21.6962 59.7716 21.1481C59.9987 20.5999 60.0581 19.9967 59.9424 19.4147C59.8266 18.8328 59.5409 18.2982 59.1213 17.8787C58.7018 17.4591 58.1672 17.1734 57.5853 17.0576C57.0033 16.9419 56.4001 17.0013 55.852 17.2284C55.3038 17.4554 54.8352 17.8399 54.5056 18.3333C54.176 18.8266 54 19.4067 54 20C54.0031 20.59 54.1767 21.1665 54.5 21.66L53.5 23H50.94C48.8647 18.6447 45.3553 15.1353 41 13.06V10.5L42.34 9.5C42.8335 9.82326 43.41 9.9969 44 10C44.5933 10 45.1734 9.82406 45.6667 9.49441C46.1601 9.16477 46.5446 8.69623 46.7716 8.14805C46.9987 7.59988 47.0581 6.99668 46.9424 6.41473C46.8266 5.83279 46.5409 5.29824 46.1213 4.87868C45.7018 4.45913 45.1672 4.1734 44.5853 4.05765C44.0033 3.94189 43.4001 4.0013 42.852 4.22837C42.3038 4.45543 41.8352 4.83995 41.5056 5.33329C41.176 5.82664 41 6.40666 41 7C41.0035 7.30266 41.0541 7.60293 41.15 7.89L39.4 9.2C39.2766 9.29389 39.1764 9.41483 39.107 9.55352C39.0377 9.69221 39.0011 9.84495 39 10V12.23C37.07 11.5397 35.0476 11.142 33 11.05V7.82C33.6672 7.58411 34.2296 7.11994 34.5876 6.50952C34.9457 5.89911 35.0765 5.18177 34.9568 4.48427C34.8371 3.78678 34.4747 3.15404 33.9337 2.6979C33.3926 2.24176 32.7077 1.99158 32 1.99158C31.2923 1.99158 30.6074 2.24176 30.0663 2.6979C29.5253 3.15404 29.1629 3.78678 29.0432 4.48427C28.9235 5.18177 29.0543 5.89911 29.4124 6.50952C29.7704 7.11994 30.3328 7.58411 31 7.82V11.05C28.9524 11.142 26.93 11.5397 25 12.23V10C24.9989 9.84495 24.9623 9.69221 24.893 9.55352C24.8236 9.41483 24.7234 9.29389 24.6 9.2L22.85 7.89C22.9459 7.60293 22.9965 7.30266 23 7C23 6.40666 22.8241 5.82664 22.4944 5.33329C22.1648 4.83995 21.6962 4.45543 21.1481 4.22837C20.5999 4.0013 19.9967 3.94189 19.4147 4.05765C18.8328 4.1734 18.2982 4.45913 17.8787 4.87868C17.4591 5.29824 17.1734 5.83279 17.0576 6.41473C16.9419 6.99668 17.0013 7.59988 17.2284 8.14805C17.4554 8.69623 17.8399 9.16477 18.3333 9.49441C18.8266 9.82406 19.4067 10 20 10C20.59 9.9969 21.1665 9.82326 21.66 9.5L23 10.5V13.06C18.6447 15.1353 15.1353 18.6447 13.06 23H10.5L9.5 21.66C9.82326 21.1665 9.9969 20.59 10 20C10 19.4067 9.82406 18.8266 9.49441 18.3333C9.16477 17.8399 8.69623 17.4554 8.14805 17.2284C7.59988 17.0013 6.99668 16.9419 6.41473 17.0576C5.83279 17.1734 5.29824 17.4591 4.87868 17.8787C4.45913 18.2982 4.1734 18.8328 4.05765 19.4147C3.94189 19.9967 4.0013 20.5999 4.22837 21.1481C4.45543 21.6962 4.83995 22.1648 5.33329 22.4944C5.82664 22.8241 6.40666 23 7 23C7.30266 22.9965 7.60293 22.9459 7.89 22.85L9.2 24.6C9.29389 24.7234 9.41483 24.8236 9.55352 24.893C9.69221 24.9623 9.84495 24.9989 10 25H12.23C11.5397 26.93 11.142 28.9524 11.05 31H7.82C7.58411 30.3328 7.11994 29.7704 6.50952 29.4124C5.89911 29.0543 5.18177 28.9235 4.48427 29.0432C3.78678 29.1629 3.15404 29.5253 2.6979 30.0663C2.24176 30.6074 1.99158 31.2923 1.99158 32C1.99158 32.7077 2.24176 33.3926 2.6979 33.9337C3.15404 34.4747 3.78678 34.8371 4.48427 34.9568C5.18177 35.0765 5.89911 34.9457 6.50952 34.5876C7.11994 34.2296 7.58411 33.6672 7.82 33H11.05C11.142 35.0476 11.5397 37.07 12.23 39H10C9.84495 39.0011 9.69221 39.0377 9.55352 39.107C9.41483 39.1764 9.29389 39.2766 9.2 39.4L7.89 41.15C7.60293 41.0541 7.30266 41.0035 7 41C6.40666 41 5.82664 41.176 5.33329 41.5056C4.83995 41.8352 4.45543 42.3038 4.22837 42.852C4.0013 43.4001 3.94189 44.0033 4.05765 44.5853C4.1734 45.1672 4.45913 45.7018 4.87868 46.1213C5.29824 46.5409 5.83279 46.8266 6.41473 46.9424C6.99668 47.0581 7.59988 46.9987 8.14805 46.7716C8.69623 46.5446 9.16477 46.1601 9.49441 45.6667C9.82406 45.1734 10 44.5933 10 44C9.9969 43.41 9.82326 42.8335 9.5 42.34L10.5 41H13.06C15.1353 45.3553 18.6447 48.8647 23 50.94V53.5L21.66 54.5C21.1665 54.1767 20.59 54.0031 20 54C19.4067 54 18.8266 54.176 18.3333 54.5056C17.8399 54.8352 17.4554 55.3038 17.2284 55.852C17.0013 56.4001 16.9419 57.0033 17.0576 57.5853C17.1734 58.1672 17.4591 58.7018 17.8787 59.1213C18.2982 59.5409 18.8328 59.8266 19.4147 59.9424C19.9967 60.0581 20.5999 59.9987 21.1481 59.7716C21.6962 59.5446 22.1648 59.1601 22.4944 58.6667C22.8241 58.1734 23 57.5933 23 57C22.9965 56.6973 22.9459 56.3971 22.85 56.11L24.6 54.8C24.7234 54.7061 24.8236 54.5852 24.893 54.4465C24.9623 54.3078 24.9989 54.1551 25 54V51.77C26.93 52.4603 28.9524 52.858 31 52.95V56.18C30.3328 56.4159 29.7704 56.8801 29.4124 57.4905C29.0543 58.1009 28.9235 58.8182 29.0432 59.5157C29.1629 60.2132 29.5253 60.846 30.0663 61.3021C30.6074 61.7583 31.2923 62.0084 32 62.0084C32.7077 62.0084 33.3926 61.7583 33.9337 61.3021C34.4747 60.846 34.8371 60.2132 34.9568 59.5157C35.0765 58.8182 34.9457 58.1009 34.5876 57.4905C34.2296 56.8801 33.6672 56.4159 33 56.18V52.95C35.0476 52.858 37.07 52.4603 39 51.77V54C39.0011 54.1551 39.0377 54.3078 39.107 54.4465C39.1764 54.5852 39.2766 54.7061 39.4 54.8L41.15 56.11C41.0541 56.3971 41.0035 56.6973 41 57C41 57.5933 41.176 58.1734 41.5056 58.6667C41.8352 59.1601 42.3038 59.5446 42.852 59.7716C43.4001 59.9987 44.0033 60.0581 44.5853 59.9424C45.1672 59.8266 45.7018 59.5409 46.1213 59.1213C46.5409 58.7018 46.8266 58.1672 46.9424 57.5853C47.0581 57.0033 46.9987 56.4001 46.7716 55.852C46.5446 55.3038 46.1601 54.8352 45.6667 54.5056C45.1734 54.176 44.5933 54 44 54C43.41 54.0031 42.8335 54.1767 42.34 54.5L41 53.5V50.94C45.3553 48.8647 48.8647 45.3553 50.94 41H53.5L54.5 42.34C54.1767 42.8335 54.0031 43.41 54 44C54 44.5933 54.176 45.1734 54.5056 45.6667C54.8352 46.1601 55.3038 46.5446 55.852 46.7716C56.4001 46.9987 57.0033 47.0581 57.5853 46.9424C58.1672 46.8266 58.7018 46.5409 59.1213 46.1213C59.5409 45.7018 59.8266 45.1672 59.9424 44.5853C60.0581 44.0033 59.9987 43.4001 59.7716 42.852C59.5446 42.3038 59.1601 41.8352 58.6667 41.5056C58.1734 41.176 57.5933 41 57 41C56.6973 41.0035 56.3971 41.0541 56.11 41.15L54.8 39.4C54.7061 39.2766 54.5852 39.1764 54.4465 39.107C54.3078 39.0377 54.1551 39.0011 54 39H51.77C52.4603 37.07 52.858 35.0476 52.95 33H56.18ZM59 31C59.1978 31 59.3911 31.0587 59.5556 31.1685C59.72 31.2784 59.8482 31.4346 59.9239 31.6173C59.9996 31.8 60.0194 32.0011 59.9808 32.1951C59.9422 32.3891 59.847 32.5673 59.7071 32.7071C59.5673 32.847 59.3891 32.9422 59.1951 32.9808C59.0011 33.0194 58.8 32.9996 58.6173 32.9239C58.4346 32.8482 58.2784 32.72 58.1685 32.5556C58.0587 32.3911 58 32.1978 58 32C58 31.7348 58.1054 31.4804 58.2929 31.2929C58.4804 31.1054 58.7348 31 59 31ZM57 19C57.1978 19 57.3911 19.0587 57.5556 19.1685C57.72 19.2784 57.8482 19.4346 57.9239 19.6173C57.9996 19.8 58.0194 20.0011 57.9808 20.1951C57.9422 20.3891 57.847 20.5673 57.7071 20.7071C57.5673 20.847 57.3891 20.9422 57.1951 20.9808C57.0011 21.0194 56.8 20.9996 56.6173 20.9239C56.4346 20.8482 56.2784 20.72 56.1685 20.5556C56.0587 20.3911 56 20.1978 56 20C56 19.7348 56.1054 19.4804 56.2929 19.2929C56.4804 19.1054 56.7348 19 57 19ZM44 6C44.1978 6 44.3911 6.05865 44.5556 6.16853C44.72 6.27842 44.8482 6.43459 44.9239 6.61732C44.9996 6.80005 45.0194 7.00111 44.9808 7.19509C44.9422 7.38908 44.847 7.56726 44.7071 7.70711C44.5673 7.84696 44.3891 7.9422 44.1951 7.98079C44.0011 8.01937 43.8 7.99957 43.6173 7.92388C43.4346 7.8482 43.2784 7.72002 43.1685 7.55557C43.0587 7.39113 43 7.19779 43 7C43 6.73479 43.1054 6.48043 43.2929 6.2929C43.4804 6.10536 43.7348 6 44 6V6ZM20 8C19.8022 8 19.6089 7.94136 19.4444 7.83147C19.28 7.72159 19.1518 7.56541 19.0761 7.38269C19.0004 7.19996 18.9806 6.9989 19.0192 6.80491C19.0578 6.61093 19.153 6.43275 19.2929 6.2929C19.4327 6.15305 19.6109 6.0578 19.8049 6.01922C19.9989 5.98063 20.2 6.00044 20.3827 6.07612C20.5654 6.15181 20.7216 6.27999 20.8315 6.44443C20.9414 6.60888 21 6.80222 21 7C21 7.26522 20.8946 7.51957 20.7071 7.70711C20.5196 7.89465 20.2652 8 20 8ZM7 21C6.80222 21 6.60888 20.9414 6.44443 20.8315C6.27999 20.7216 6.15181 20.5654 6.07612 20.3827C6.00044 20.2 5.98063 19.9989 6.01922 19.8049C6.0578 19.6109 6.15305 19.4327 6.2929 19.2929C6.43275 19.153 6.61093 19.0578 6.80491 19.0192C6.9989 18.9806 7.19996 19.0004 7.38269 19.0761C7.56541 19.1518 7.72159 19.28 7.83147 19.4444C7.94136 19.6089 8 19.8022 8 20C8 20.2652 7.89465 20.5196 7.70711 20.7071C7.51957 20.8946 7.26522 21 7 21ZM5 33C4.80222 33 4.60888 32.9414 4.44443 32.8315C4.27999 32.7216 4.15181 32.5654 4.07612 32.3827C4.00044 32.2 3.98063 31.9989 4.01922 31.8049C4.0578 31.6109 4.15305 31.4327 4.2929 31.2929C4.43275 31.153 4.61093 31.0578 4.80491 31.0192C4.9989 30.9806 5.19996 31.0004 5.38269 31.0761C5.56541 31.1518 5.72159 31.28 5.83147 31.4444C5.94136 31.6089 6 31.8022 6 32C6 32.2652 5.89465 32.5196 5.70711 32.7071C5.51957 32.8946 5.26522 33 5 33ZM7 45C6.80222 45 6.60888 44.9414 6.44443 44.8315C6.27999 44.7216 6.15181 44.5654 6.07612 44.3827C6.00044 44.2 5.98063 43.9989 6.01922 43.8049C6.0578 43.6109 6.15305 43.4327 6.2929 43.2929C6.43275 43.153 6.61093 43.0578 6.80491 43.0192C6.9989 42.9806 7.19996 43.0004 7.38269 43.0761C7.56541 43.1518 7.72159 43.28 7.83147 43.4444C7.94136 43.6089 8 43.8022 8 44C8 44.2652 7.89465 44.5196 7.70711 44.7071C7.51957 44.8946 7.26522 45 7 45ZM20 58C19.8022 58 19.6089 57.9414 19.4444 57.8315C19.28 57.7216 19.1518 57.5654 19.0761 57.3827C19.0004 57.2 18.9806 56.9989 19.0192 56.8049C19.0578 56.6109 19.153 56.4327 19.2929 56.2929C19.4327 56.153 19.6109 56.0578 19.8049 56.0192C19.9989 55.9806 20.2 56.0004 20.3827 56.0761C20.5654 56.1518 20.7216 56.28 20.8315 56.4444C20.9414 56.6089 21 56.8022 21 57C21 57.2652 20.8946 57.5196 20.7071 57.7071C20.5196 57.8946 20.2652 58 20 58ZM44 56C44.1978 56 44.3911 56.0587 44.5556 56.1685C44.72 56.2784 44.8482 56.4346 44.9239 56.6173C44.9996 56.8 45.0194 57.0011 44.9808 57.1951C44.9422 57.3891 44.847 57.5673 44.7071 57.7071C44.5673 57.847 44.3891 57.9422 44.1951 57.9808C44.0011 58.0194 43.8 57.9996 43.6173 57.9239C43.4346 57.8482 43.2784 57.72 43.1685 57.5556C43.0587 57.3911 43 57.1978 43 57C43 56.7348 43.1054 56.4804 43.2929 56.2929C43.4804 56.1054 43.7348 56 44 56ZM57 43C57.1978 43 57.3911 43.0587 57.5556 43.1685C57.72 43.2784 57.8482 43.4346 57.9239 43.6173C57.9996 43.8 58.0194 44.0011 57.9808 44.1951C57.9422 44.3891 57.847 44.5673 57.7071 44.7071C57.5673 44.847 57.3891 44.9422 57.1951 44.9808C57.0011 45.0194 56.8 44.9996 56.6173 44.9239C56.4346 44.8482 56.2784 44.72 56.1685 44.5556C56.0587 44.3911 56 44.1978 56 44C56 43.7348 56.1054 43.4804 56.2929 43.2929C56.4804 43.1054 56.7348 43 57 43ZM32 4C32.1978 4 32.3911 4.05865 32.5556 4.16853C32.72 4.27842 32.8482 4.43459 32.9239 4.61732C32.9996 4.80005 33.0194 5.00111 32.9808 5.19509C32.9422 5.38908 32.847 5.56726 32.7071 5.70711C32.5673 5.84696 32.3891 5.9422 32.1951 5.98079C32.0011 6.01937 31.8 5.99957 31.6173 5.92388C31.4346 5.8482 31.2784 5.72002 31.1685 5.55557C31.0587 5.39113 31 5.19779 31 5C31 4.73479 31.1054 4.48043 31.2929 4.2929C31.4804 4.10536 31.7348 4 32 4V4ZM32 60C31.8022 60 31.6089 59.9414 31.4444 59.8315C31.28 59.7216 31.1518 59.5654 31.0761 59.3827C31.0004 59.2 30.9806 58.9989 31.0192 58.8049C31.0578 58.6109 31.153 58.4327 31.2929 58.2929C31.4327 58.153 31.6109 58.0578 31.8049 58.0192C31.9989 57.9806 32.2 58.0004 32.3827 58.0761C32.5654 58.1518 32.7216 58.28 32.8315 58.4444C32.9414 58.6089 33 58.8022 33 59C33 59.2652 32.8946 59.5196 32.7071 59.7071C32.5196 59.8946 32.2652 60 32 60ZM32 51C28.2422 51 24.5687 49.8857 21.4442 47.7979C18.3196 45.7102 15.8844 42.7428 14.4463 39.271C13.0082 35.7992 12.632 31.9789 13.3651 28.2933C14.0982 24.6076 15.9078 21.2222 18.565 18.565C21.2222 15.9078 24.6076 14.0982 28.2933 13.3651C31.9789 12.632 35.7992 13.0082 39.271 14.4463C42.7428 15.8844 45.7102 18.3196 47.7979 21.4442C49.8857 24.5687 51 28.2422 51 32C50.9955 37.0377 48.9923 41.8678 45.4301 45.4301C41.8678 48.9923 37.0377 50.9955 32 51V51Z" fill="#1E81CE"/>
<path d="M32 15C28.6377 15 25.3509 15.997 22.5553 17.865C19.7597 19.733 17.5807 22.388 16.2941 25.4944C15.0074 28.6007 14.6707 32.0189 15.3267 35.3165C15.9826 38.6142 17.6017 41.6433 19.9792 44.0208C22.3567 46.3983 25.3858 48.0174 28.6835 48.6734C31.9811 49.3293 35.3993 48.9926 38.5056 47.706C41.612 46.4193 44.267 44.2403 46.135 41.4447C48.003 38.6491 49 35.3623 49 32C48.995 27.4929 47.2023 23.1718 44.0153 19.9847C40.8282 16.7977 36.5071 15.005 32 15V15ZM32 47C29.0333 47 26.1332 46.1203 23.6665 44.472C21.1997 42.8238 19.2771 40.4811 18.1418 37.7402C17.0065 34.9994 16.7095 31.9834 17.2882 29.0736C17.867 26.1639 19.2956 23.4912 21.3934 21.3934C23.4912 19.2956 26.1639 17.867 29.0737 17.2882C31.9834 16.7094 34.9994 17.0065 37.7403 18.1418C40.4811 19.2771 42.8238 21.1997 44.4721 23.6664C46.1203 26.1332 47 29.0333 47 32C46.9955 35.9769 45.4137 39.7896 42.6016 42.6016C39.7896 45.4137 35.9769 46.9955 32 47Z" fill="#1E81CE"/>
<path d="M23.5 26.515L32 21.608L40.5 26.515C40.6138 26.5817 40.7396 26.6252 40.8703 26.6431C41.0009 26.661 41.1338 26.6528 41.2613 26.6191C41.3888 26.5854 41.5084 26.5268 41.6132 26.4467C41.7179 26.3666 41.8058 26.2665 41.8718 26.1523C41.9377 26.0381 41.9804 25.912 41.9974 25.7812C42.0144 25.6504 42.0054 25.5176 41.9708 25.3903C41.9363 25.263 41.8769 25.1439 41.7961 25.0396C41.7153 24.9354 41.6146 24.8482 41.5 24.783L32.5 19.583C32.348 19.4952 32.1755 19.449 32 19.449C31.8245 19.449 31.652 19.4952 31.5 19.583L22.5 24.783C22.2722 24.9166 22.1065 25.1348 22.039 25.3901C21.9715 25.6454 22.0077 25.917 22.1397 26.1457C22.2718 26.3744 22.4889 26.5416 22.7437 26.6108C22.9986 26.6799 23.2704 26.6455 23.5 26.515Z" fill="#1E81CE"/>
<path d="M40.5 37.485L32 42.392L23.5 37.485C23.2704 37.3545 22.9986 37.3201 22.7437 37.3892C22.4889 37.4584 22.2718 37.6256 22.1397 37.8543C22.0077 38.083 21.9715 38.3546 22.039 38.6099C22.1065 38.8652 22.2722 39.0834 22.5 39.217L31.5 44.417C31.652 44.5048 31.8245 44.551 32 44.551C32.1755 44.551 32.348 44.5048 32.5 44.417L41.5 39.217C41.7278 39.0834 41.8935 38.8652 41.961 38.6099C42.0285 38.3546 41.9923 38.083 41.8603 37.8543C41.7282 37.6256 41.5111 37.4584 41.2563 37.3892C41.0014 37.3201 40.7296 37.3545 40.5 37.485Z" fill="#1E81CE"/>
</svg>
